<svg id="svg8" width="210mm" height="297mm" version="1.1" viewBox="0 0 210 297" xmlns="http://www.w3.org/2000/svg" xmlns:xlink="http://www.w3.org/1999/xlink">
 <defs id="defs1465">
  <radialGradient id="radialGradient1086" cx="69.672" cy="79.966" r="10.671" gradientTransform="matrix(0 -8.0534 8.8021 0 -634.2 724.32)" gradientUnits="userSpaceOnUse">
   <stop id="stop1080" offset="0"/>
   <stop id="stop1082" style="stop-color:#bdbdbd" offset="1"/>
  </radialGradient>
 </defs>
 <path id="path1074" d="m84.748 163.22-13.04-7.7584v-179.44l-8.3015-0.65812 1e-6 187.85" style="fill:url(#radialGradient1086);opacity:.098;paint-order:normal"/>
 <rect id="rect1491" y="21.05" width="210" height="4.3501" style="fill-opacity:.9875;fill:#e0e0e0;paint-order:normal"/>
 <path id="path1495" d="m0 23.225h210" style="fill-opacity:.9875;fill:#616161;paint-order:normal;stroke:#9e9e9e"/>
 <path id="path1497" d="m0 23.225h210" style="fill-opacity:.9875;fill:#212121;paint-order:normal;stroke-dasharray:6.00000018, 2.00000006000000008;stroke-dashoffset:20;stroke-width:2;stroke:#757575"/>
 <rect id="rect36870" x="25.509" y="129.17" width="97.367" height="5.9868" style="fill-opacity:.9875;fill:#e0e0e0;paint-order:normal"/>
 <rect id="cube" x="24.337" y="49.872" width="25.316" height="25.316" style="fill-opacity:.99792;fill:#bdbdbd;paint-order:normal"/>
 <path id="rect824" d="m24.457 81.556h25.076v11.056h-25.076z" style="fill-opacity:.97917;fill:#212121;paint-order:normal;stroke-width:.49051"/>
 <path id="rect33997" d="m15.243 40.778v43.502h43.502v-43.502l-29.401 2.7241v6.369h20.309v25.316h-25.316v-31.686z" style="fill-opacity:.97917;fill:#212121;paint-order:normal;stroke-width:.12978"/>
 <path id="rect815" d="m15.243 40.778v43.502h43.502v-43.502h-29.401v2.7241h26.679v38.054h-38.054v-38.054h6.369v-2.7241z" style="fill-opacity:.99792;fill:#121212;paint-order:normal;stroke-width:.12978"/>
 <path id="rect826" d="m24.457 92.612h25.076l5.1911 6.0087h-35.458z" style="fill-opacity:.97917;fill:#151515;paint-order:normal;stroke-width:.49051"/>
 <rect id="rect829" x="24.457" y="88.447" width="25.076" height="4.166" style="fill-opacity:.97917;fill:#f9a825;paint-order:normal;stroke-width:.49051"/>
 <path id="path831" d="m36.997 89.109 1.6867 2.9214h-3.3733l0.84333-1.4607z" style="fill:none;paint-order:normal;stroke-width:.49051;stroke:#000"/>
 <g id="g839" transform="matrix(.49051 0 0 .49051 -15.095 -6.0635)">
  <path id="path833" d="m106.2 196.54v1.7757" style="fill:none;paint-order:normal;stroke-width:.5;stroke:#000"/>
  <path id="path835" d="m106.2 198.6v0.49084" style="fill:none;paint-order:normal;stroke-width:.5;stroke:#000"/>
 </g>
 <path id="path34015" d="m21.613 4.2364e-5v43.502h2.7238v-43.502zm7.7309 0v43.502h2.7238v-43.502z" style="fill-opacity:.99792;fill:#121212;paint-order:normal;stroke-width:.12978"/>
 <path id="heater1" class="heater" d="m17.968 46.896v31.267h6.3693v-31.267z" style="fill-opacity:.99792;fill:#616161;paint-order:normal;stroke-width:.49051"/>
 <path id="heater2" class="heater" d="m49.652 46.896v31.267h6.3693v-31.267z" style="fill-opacity:.99792;fill:#616161;paint-order:normal;stroke-width:.49051"/>
 <circle id="path34024" cx="26.858" cy="9.7441" r="1.9568" style="fill:#bdbdbd;paint-order:normal"/>
 <path id="circle36858" d="m128.81 132.16c0 3.0124-2.442 5.4544-5.4544 5.4544h-98.557c-3.0124 0-5.4544-2.442-5.4544-5.4544 2e-6 -3.0124 2.442-5.4544 5.4544-5.4544l98.557 1e-5c3.0124 0 5.4544 2.442 5.4544 5.4544z" style="fill:none;paint-order:normal;stroke:#000"/>
 <path id="conveyorBelt" d="m128.81 132.16c0 3.0124-2.442 5.4544-5.4544 5.4544h-98.557c-3.0124 0-5.4544-2.442-5.4544-5.4544 2e-6 -3.0124 2.442-5.4544 5.4544-5.4544l98.557 1e-5c3.0124 0 5.4544 2.442 5.4544 5.4544z" style="fill:none;paint-order:normal;stroke-dasharray:6.00000001,2.00000001;stroke-dashoffset:20;stroke-width:2;stroke:#000"/>
 <circle id="path36866" cx="25.509" cy="132.16" r="2.9934" style="fill-opacity:.9875;fill:#757575;paint-order:normal;stroke-dashoffset:75.591;stroke-width:2;stroke:#616161"/>
 <circle id="circle36868" cx="122.88" cy="132.16" r="2.9934" style="fill-opacity:.9875;fill:#757575;paint-order:normal;stroke-dashoffset:75.591;stroke-width:2;stroke:#616161"/>
 <rect id="rect36874" x="68.358" y="-7.27e-15" width="5.2762" height="31.151" style="fill-opacity:.9875;fill:#b71c1c;paint-order:normal"/>
 <rect id="rect36876" x="75.221" y="-1.0058e-14" width="5.2762" height="31.151" style="fill-opacity:.9875;fill:#2e7d32;paint-order:normal"/>
 <rect id="rect36878" x="82.085" y="-5.843e-15" width="5.2762" height="31.151" style="fill-opacity:.9875;fill:#303f9f;paint-order:normal"/>
 <g id="g36950" transform="translate(-4.7625 -9.5415)">
  <g id="sprayToolGroup">
   <rect id="sprayToolAttachment" x="86.462" y="64.068" width="5.332" height="20.664" style="fill-opacity:.98824;fill:#757575;paint-order:normal;str                                                                                                               oke-width:1.5;stroke-dashoffset:75.591;stroke:#939393"/>
   <path id="spray" transform="rotate(-63.718 89.128 81.733)" d="m89.102 92.66 4.802 11.258h-9.604z" style="fill-opacity:.98824;fill:#b71c1c;paint-order:normal"/>
   <circle id="path36904" transform="rotate(-63.718 89.128 81.733)" cx="89.128" cy="81.733" r="4.6506" style="fill-opacity:.98824;fill:#757575;paint-order:normal;stroke-dashoffset:75.591;stroke-width:1.5624;stroke:#939393"/>
   <path id="sprayToolHead" transform="rotate(-63.718 89.128 81.733)" d="m89.128 97.641-4.802-11.258h9.604z" style="fill-opacity:.98824;fill:#757575;paint-order:normal;stroke-dashoffset:75.591;stroke-width:1.2348;stroke:#939393"/>
   <circle id="path36919" cx="89.128" cy="81.733" r="2.1539" style="fill-opacity:.98824;fill:#c62828;paint-order:normal"/>
  </g>
  <rect id="rect36872" x="74.62" y="42.192" width="29.015" height="27.876" style="fill-opacity:.9875;fill:#212121;paint-order:normal;stroke-dashoffset:75.591;stroke-width:3;stroke:#000"/>
  <g id="g36900" transform="translate(.64843 .10057)">
   <path id="path36880" d="m80.542 47.237v17.586" style="fill-opacity:.9875;fill:#eee;paint-order:normal;stroke-dashoffset:75.591;stroke-width:2;stroke:#eee"/>
   <path id="path36882" d="m88.479 47.237v17.586" style="fill-opacity:.9875;fill:#eee;paint-order:normal;stroke-dashoffset:75.591;stroke-width:2;stroke:#eee"/>
   <path id="path36884" d="m96.417 47.237v17.586" style="fill-opacity:.9875;fill:#eee;paint-order:normal;stroke-dashoffset:75.591;stroke-width:2;stroke:#eee"/>
   <circle id="path36888" cx="80.542" cy="55.385" r="1.9964" style="fill-opacity:.9875;fill:#b71c1c;paint-order:normal"/>
   <circle id="circle36890" cx="88.479" cy="60.808" r="1.9964" style="fill-opacity:.98824;fill:#2e7c32;paint-order:normal"/>
   <circle id="circle36892" cx="96.417" cy="52.408" r="1.9964" style="fill-opacity:.98824;fill:#303f9f;paint-order:normal"/>
  </g>
 </g>
 <g id="g1477" transform="translate(-46.182 30.692)">
  <rect id="rect1471" x="159.73" y="31.221" width="3.8624" height="38.373" style="fill-opacity:.98824;fill:#bdbdbd;paint-order:normal;stroke-width:.62836"/>
  <rect id="rect1473" x="156.03" y="68.01" width="11.269" height="1.5838" style="fill-opacity:.98824;fill:#757575;paint-order:normal;stroke-width:.21805"/>
 </g>
 <rect id="rect36921" x="111.88" y="25.4" width="7.2054" height="38.373" style="fill-opacity:.98824;fill:#757575;paint-order:normal;stroke-width:.85824"/>
 <path id="path1493" d="m111.88 25.4 2.1167-4.3501h2.9721l2.1167 4.3501v0.98551l-7.2054 0.07201z" style="fill-opacity:.99574;fill:#616161;paint-order:normal"/>
 <circle id="circle1093" cx="202.83" cy="71.803" r="5.0866" style="fill-opacity:.98824;fill:#9e9e9e;paint-order:normal;stroke-dashoffset:75.591;stroke-width:2.55;stroke:#9e9e9e"/>
 <rect id="rect1058" x="-14.959" y="208.55" width="137.84" height="5.9868" style="fill-opacity:.9875;fill:#e0e0e0;paint-order:normal"/>
 <path id="path1060" d="m128.81 211.54c0 3.0124-2.442 5.4544-5.4544 5.4544h-140.89c-3.0124 0-5.4544-2.442-5.4544-5.4544 2e-6 -3.0124 2.442-5.4544 5.4544-5.4544l140.89 1e-5c3.0124 0 5.4544 2.442 5.4544 5.4544z" style="fill:none;paint-order:normal;stroke:#000"/>
 <path id="path1062" d="m128.81 211.54c0 3.0124-2.442 5.4544-5.4544 5.4544h-140.89c-3.0124 0-5.4544-2.442-5.4544-5.4544 2e-6 -3.0124 2.442-5.4544 5.4544-5.4544l140.89 1e-5c3.0124 0 5.4544 2.442 5.4544 5.4544z" style="fill:none;paint-order:normal;stroke-dasharray:6.00000001, 2.00000001;stroke-dashoffset:20;stroke-width:2;stroke:#000"/>
 <circle id="circle1066" cx="122.88" cy="211.54" r="2.9934" style="fill-opacity:.9875;fill:#757575;paint-order:normal;stroke-dashoffset:75.591;stroke-width:2;stroke:#616161"/>
 <rect id="rect1068" x="63.406" y="170.55" width="21.342" height="34.531" style="fill-opacity:.94243;fill:#1565c0;opacity:.371;paint-order:normal"/>
 <rect id="rect1070" x="63.406" y="163.22" width="21.342" height="7.328" style="fill-opacity:.99147;fill:#424242;paint-order:normal"/>
 <path id="rect1090" transform="scale(.26458)" d="m508.71 559.87v56.152h230.4l-32.42-56.152h-197.98zm0 209.61v54.426h197.98 87.004v-54.426h-284.99z" style="fill-opacity:.99147;fill:#616161;paint-order:normal"/>
 <path id="path1094" d="m148.33 148.13v-16.104l-10.583-10.575h46.083l-10.583 10.575v16.104z" style="fill-opacity:.99147;fill:#616161;paint-order:normal"/>
 <path id="rect1100" transform="scale(.26458)" d="m508.71 616.02v153.45h284.99v-58.912l-54.584-94.541h-230.4z" style="fill-opacity:.99147;fill:#eee;paint-order:normal"/>
 <path id="rect1117" transform="scale(.26458)" d="m739.12 616.02v153.45h54.584v-58.912l-54.584-94.541z" style="fill-opacity:.99147;fill:#e0e0e0;paint-order:normal"/>
 <rect id="rect1525" x="134.6" y="148.13" width="4.7461" height="69.858" style="fill-opacity:.99147;fill:#424242;paint-order:normal"/>
 <path id="rect1122" transform="scale(.26458)" d="m508.71 580.07v15.746h218.74l-9.0918-15.746h-209.65z" style="fill-opacity:.97917;fill:#f9a825;paint-order:normal;stroke-width:2.8596"/>
 <path id="path1152" d="m163.53 154.22 1.6867 2.9214h-3.3733l0.84333-1.4607z" style="fill:none;paint-order:normal;stroke-width:.49051;stroke:#000"/>
 <g id="g1176" transform="translate(.12707 .077888)">
  <circle id="path1170" cx="163.14" cy="156.01" r=".26942" style="fill-opacity:.99147;paint-order:normal"/>
  <path id="path1172" d="m163.14 156.01h0.90538" style="fill-opacity:.99147;paint-order:normal;stroke-width:.13229;stroke:#000"/>
 </g>
 <path id="path1178" d="m163.27 156.09 0.36325-0.62916" style="fill-opacity:.99147;paint-order:normal;stroke-linejoin:round;stroke-width:.052917;stroke:#000"/>
 <path id="path1444" d="m162.91 156.72 0.36325-0.62916" style="fill-opacity:.99147;paint-order:normal;stroke-linejoin:round;stroke-width:.052917;stroke:#000"/>
 <path id="path1446" d="m163.62 156.73-0.36325-0.62916" style="fill-opacity:.99147;paint-order:normal;stroke-linejoin:round;stroke-width:.052917;stroke:#000"/>
 <path id="path1448" d="m163.26 156.1-0.36325-0.62916" style="fill-opacity:.99147;paint-order:normal;stroke-linejoin:round;stroke-width:.052917;stroke:#000"/>
 <path id="path1450" d="m163.22 156.12 0.62917-0.36324" style="fill-opacity:.99147;paint-order:normal;stroke-linejoin:round;stroke-width:.052917;stroke:#000"/>
 <path id="path1452" d="m162.66 156.41 0.62917-0.36324" style="fill-opacity:.99147;paint-order:normal;stroke-linejoin:round;stroke-width:.052917;stroke:#000"/>
 <path id="path1454" d="m163.81 156.42-0.62917-0.36324" style="fill-opacity:.99147;paint-order:normal;stroke-linejoin:round;stroke-width:.052917;stroke:#000"/>
 <path id="path1456" d="m163.26 156.1-0.62917-0.36324" style="fill-opacity:.99147;paint-order:normal;stroke-linejoin:round;stroke-width:.052917;stroke:#000"/>
 <path id="path1458" d="m163.26 155.31v1.498" style="fill-opacity:.99147;paint-order:normal;stroke-linejoin:round;stroke-width:.052917;stroke:#000"/>
 <path id="rect1479" d="m19.129 148.06v13.915a3.4034 3.4034 0 0 0-1.9901-0.64647 3.4034 3.4034 0 0 0-3.4034 3.4034 3.4034 3.4034 0 0 0 3.4034 3.4034 3.4034 3.4034 0 0 0 3.4024-3.3951h2e-3v-12.511h11.311v9.7457a3.4034 3.4034 0 0 0-1.9906-0.64647 3.4034 3.4034 0 0 0-3.4034 3.4034 3.4034 3.4034 0 0 0 3.4034 3.4034 3.4034 3.4034 0 0 0 3.4024-3.3879h2e-3v-16.687h-1.4139v0.014h-11.311v-0.014z" style="fill-opacity:.99792;fill:#bdbdbd;paint-order:normal"/>
 <path id="path1527" d="m148.33 148.13v-16.104l24.916-1e-5v16.104z" style="fill-opacity:.99147;fill:#424242;paint-order:normal"/>
 <g id="indicatorLightGroup">
  <rect id="rect1160" x="136.97" y="147.59" width="3.8764" height=".54135" style="fill-opacity:.9875;fill:#212121;paint-order:normal"/>
  <path id="rect1162" d="m138.91 145.01c-0.72158 1e-5 -1.3064 0.22396-1.3062 0.50013v2.0832h2.6126v-2.0832c2.7e-4 -0.27621-0.58475-0.50017-1.3064-0.50013z" style="fill-opacity:.9875;fill:#c62828;paint-order:normal"/>
 </g>
</svg>
