<svg id="svg8" width="210mm" height="297mm" version="1.1" viewBox="0 0 210 297" xmlns="http://www.w3.org/2000/svg">
 <path id="path1091" d="m112.91 83.912 12.598 16.137h-25.316z" style="fill-opacity:.9875;fill:#424242;paint-order:normal"/>
 <rect id="rect1073" x="109.3" y="52.254" width="7.2054" height="36.222" style="fill-opacity:.98824;fill:#757575;paint-order:normal"/>
 <rect id="rect36925" transform="rotate(89.632)" x="49.532" y="-161.32" width="7.2054" height="48.74" style="fill-opacity:.98824;fill:#757575;paint-order:normal"/>
 <rect id="rect36870" x="25.509" y="129.17" width="97.367" height="5.9868" style="fill-opacity:.9875;fill:#e0e0e0;paint-order:normal"/>
 <rect id="rect34026" x="24.337" y="49.872" width="25.316" height="25.316" style="fill-opacity:.99792;fill:#bdbdbd;paint-order:normal"/>
 <g id="g34134" transform="matrix(.49051 0 0 .49051 -15.12 -6.2801)">
  <path id="rect824" d="m80.686 179.07h51.123v22.54h-51.123z" style="fill-opacity:.97917;fill:#212121;paint-order:normal"/>
  <path id="rect33997" transform="scale(.26458)" d="m233.96 362.6v335.2h335.2v-335.2l-226.55 20.99v49.076h156.49v195.07h-195.07v-244.15z" style="fill-opacity:.97917;fill:#212121;paint-order:normal"/>
  <path id="rect815" transform="scale(.26458)" d="m233.96 362.6v335.2h335.2v-335.2h-226.55v20.99h205.57v293.22h-293.22v-293.22h49.076v-20.99z" style="fill-opacity:.99792;fill:#121212;paint-order:normal"/>
  <path id="rect826" d="m80.686 201.61h51.123l10.583 12.25h-72.289z" style="fill-opacity:.97917;fill:#151515;paint-order:normal"/>
  <rect id="rect829" x="80.686" y="193.12" width="51.123" height="8.4932" style="fill-opacity:.97917;fill:#f9a825;paint-order:normal"/>
  <path id="path831" d="m106.25 194.47 3.4386 5.9559h-6.8772l1.7193-2.9779z" style="fill:none;paint-order:normal;stroke:#000"/>
  <g id="g839" transform="translate(.051426 .44166)">
   <path id="path833" d="m106.2 196.54v1.7757" style="fill:none;paint-order:normal;stroke-width:.5;stroke:#000"/>
   <path id="path835" d="m106.2 198.6v0.49084" style="fill:none;paint-order:normal;stroke-width:.5;stroke:#000"/>
  </g>
  <path id="path34015" transform="scale(.26458)" d="m283.04 48.391v335.2h20.988v-335.2zm59.57 0v335.2h20.988v-335.2z" style="fill-opacity:.99792;fill:#121212;paint-order:normal"/>
  <path id="path34020" d="m67.456 108.41v63.743h12.985v-63.743z" style="fill-opacity:.99792;fill:#616161;paint-order:normal"/>
  <path id="path34022" d="m132.05 108.41v63.743h12.985v-63.743z" style="fill-opacity:.99792;fill:#616161;paint-order:normal"/>
 </g>
 <circle id="path34024" cx="26.858" cy="9.7441" r="1.9568" style="fill:#bdbdbd;paint-order:normal"/>
 <path id="circle36858" d="m128.81 132.16c0 3.0124-2.442 5.4544-5.4544 5.4544h-98.557c-3.0124 0-5.4544-2.442-5.4544-5.4544 2e-6 -3.0124 2.442-5.4544 5.4544-5.4544l98.557 1e-5c3.0124 0 5.4544 2.442 5.4544 5.4544z" style="fill:none;paint-order:normal;stroke:#000"/>
 <path id="path36864" d="m128.81 132.16c0 3.0124-2.442 5.4544-5.4544 5.4544h-98.557c-3.0124 0-5.4544-2.442-5.4544-5.4544 2e-6 -3.0124 2.442-5.4544 5.4544-5.4544l98.557 1e-5c3.0124 0 5.4544 2.442 5.4544 5.4544z" style="fill:none;paint-order:normal;stroke-dasharray:6.00000018,2.00000006;stroke-dashoffset:20;stroke-width:2;stroke:#000"/>
 <circle id="path36866" cx="25.509" cy="132.16" r="2.9934" style="fill-opacity:.9875;fill:#757575;paint-order:normal;stroke-dashoffset:75.591;stroke-width:2;stroke:#616161"/>
 <circle id="circle36868" cx="122.88" cy="132.16" r="2.9934" style="fill-opacity:.9875;fill:#757575;paint-order:normal;stroke-dashoffset:75.591;stroke-width:2;stroke:#616161"/>
 <rect id="rect36874" x="68.358" y="-7.27e-15" width="5.2762" height="31.151" style="fill-opacity:.9875;fill:#b71c1c;paint-order:normal"/>
 <rect id="rect36876" x="75.221" y="-1.0058e-14" width="5.2762" height="31.151" style="fill-opacity:.9875;fill:#2e7d32;paint-order:normal"/>
 <rect id="rect36878" x="82.085" y="-5.843e-15" width="5.2762" height="31.151" style="fill-opacity:.9875;fill:#303f9f;paint-order:normal"/>
 <g id="g36950" transform="translate(-4.7625 -9.5415)">
  <rect id="rect36902" x="86.462" y="70.068" width="5.332" height="10.664" style="fill-opacity:.98824;fill:#757575;paint-order:normal;stroke-dashoffset:75.591;stroke-width:2;stroke:#bdbdbd"/>
  <rect id="rect36872" x="74.62" y="42.192" width="29.015" height="27.876" style="fill-opacity:.9875;fill:#212121;paint-order:normal;stroke-dashoffset:75.591;stroke-width:3;stroke:#000"/>
  <g id="g36900" transform="translate(.64843 .10057)">
   <path id="path36880" d="m80.542 47.237v17.586" style="fill-opacity:.9875;fill:#eee;paint-order:normal;stroke-dashoffset:75.591;stroke-width:2;stroke:#eee"/>
   <path id="path36882" d="m88.479 47.237v17.586" style="fill-opacity:.9875;fill:#eee;paint-order:normal;stroke-dashoffset:75.591;stroke-width:2;stroke:#eee"/>
   <path id="path36884" d="m96.417 47.237v17.586" style="fill-opacity:.9875;fill:#eee;paint-order:normal;stroke-dashoffset:75.591;stroke-width:2;stroke:#eee"/>
   <circle id="path36888" cx="80.542" cy="55.385" r="1.9964" style="fill-opacity:.9875;fill:#b71c1c;paint-order:normal"/>
   <circle id="circle36890" cx="88.479" cy="60.808" r="1.9964" style="fill-opacity:.98824;fill:#2e7c32;paint-order:normal"/>
   <circle id="circle36892" cx="96.417" cy="52.408" r="1.9964" style="fill-opacity:.98824;fill:#303f9f;paint-order:normal"/>
  </g>
  <g id="g1106">
   <path id="path1097" transform="rotate(-63.718 89.128 81.733)" d="m89.102 92.66 4.802 11.258h-9.604z" style="fill-opacity:.98824;fill:#b71c1c;opacity:.106;paint-order:normal"/>
   <circle id="path36904" transform="rotate(-63.718 89.128 81.733)" cx="89.128" cy="81.733" r="4.6506" style="fill-opacity:.98824;fill:#757575;paint-order:normal;stroke-dashoffset:75.591;stroke-width:1.5624;stroke:#939393"/>
   <path id="path36908" transform="rotate(-63.718 89.128 81.733)" d="m89.128 97.641-4.802-11.258h9.604z" style="fill-opacity:.98824;fill:#757575;paint-order:normal;stroke-dashoffset:75.591;stroke-width:1.2348;stroke:#939393"/>
   <circle id="path36919" cx="89.128" cy="81.733" r="2.1539" style="fill-opacity:.98824;fill:#c62828;paint-order:normal"/>
  </g>
 </g>
 <rect id="rect36921" x="158.06" width="7.2054" height="52.097" style="fill-opacity:.98824;fill:#757575;paint-order:normal"/>
 <circle id="circle36927" cx="112.92" cy="52.41" r="5.0866" style="fill-opacity:.98824;fill:#9e9e9e;paint-order:normal;stroke-dashoffset:75.591;stroke-width:2.55;stroke:#9e9e9e"/>
 <circle id="circle1093" cx="161.66" cy="52.097" r="5.0866" style="fill-opacity:.98824;fill:#9e9e9e;paint-order:normal;stroke-dashoffset:75.591;stroke-width:2.55;stroke:#9e9e9e"/>
</svg>
