<svg id="svg8" width="210mm" height="297mm" viewBox="0 0 210 297" xmlns="http://www.w3.org/2000/svg" rendering="crispEdges"><style>svg{margin:0;padding:0;background-color:#eee;filter:drop-shadow(5px 5px 0px #11111122)}#cube{transition:fill 1s linear;transform-origin:0 75px;transform:scaleY(0)}@keyframes conveyorBeltMove{0%{stroke-dashoffset:999}100%{stroke-dashoffset:20}}#conveyorBelt{animation:conveyorBeltMove 27.1s linear infinite}#conveyor2Belt{animation:conveyorBeltMove 25s linear infinite reverse}@keyframes createCube{0%{transform:scaleY(0)}100%{transform:scaleY(1)}}@keyframes fallCube{0%{transform:scaleY(1) translateY(0%)}100%{transform:scaleY(1) translateY(16.9%)}}@keyframes cubeBeltMove{0%{transform:scaleY(1) translateY(16.9%) translateX(0%)}100%{transform:scaleY(1) translateY(16.9%) translateX(37.5%)}}@keyframes cubePistonMoveUp{0%{transform:scaleY(1) translateY(15.9%) translateX(37.5%)}100%{transform:scaleY(1) translateY(6%) translateX(37.5%)}}@keyframes cubePistonMoveForward{0%{transform:scaleY(1) translateY(6%) translateX(37.5%)}100%{transform:scaleY(1) translateY(6%) translateX(59%)}}@keyframes cubeChangeColour{0%{fill:#bdbdbd}100%{fill:#f44336}}@keyframes cubePistonFall{0%{transform:scaleY(1) translateY(6%) translateX(59%)}100%{transform:scaleY(1) translateY(45%) translateX(59%)}}.cube--anim{animation:createCube 2s linear forwards,fallCube 1s ease-in 2s forwards,cubeBeltMove 2.15s linear 3s forwards,cubePistonMoveUp 1s linear 5.15s forwards,cubePistonMoveForward 1s linear 7s forwards,cubePistonFall 1s ease-in 8s forwards}@keyframes sprayAppear{0%{opacity:0}100%{opacity:.1}}#spray{opacity:0;animation:sprayAppear 2s ease-out 6s alternate-reverse forwards}@keyframes sprayToolReveal{0%{transform:translateY(-7%)}100%{transform:translateY(0%)}}@keyframes sprayToolHeadMove{0%{transform:rotate(180deg)}100%{transform:rotate(-60deg)}}#sprayToolGroup{transform:translateY(-7%);animation:sprayToolReveal 1s ease-out 4s forwards,sprayToolReveal 1s ease-out 8s forwards reverse}#sprayToolHead{transform:rotate(180deg);transform-origin:89.128px 81.733px;animation:sprayToolHeadMove 1s ease-out 4s forwards}@keyframes epic{0%{transform:rotate(0deg)}100%{transform:rotate(360deg)}}@keyframes pistonMoveUp{0%{transform:translateY(0%)}100%{transform:translateY(-11%)}}#piston,#pistonTip{animation:pistonMoveUp 1.1s linear 5.05s forwards,pistonMoveUp 1s linear 8s forwards reverse}@keyframes pistonMoveForward{0%{transform:translateX(0%)}100%{transform:translateX(21.5%)}}#pistonParentGroup{animation:pistonMoveForward 1s linear 7s forwards,pistonMoveForward 1s linear 8s forwards reverse}@keyframes pistonBeltMove{0%{stroke-dashoffset:70}100%{stroke-dashoffset:20}}#pistonBelt{animation:pistonBeltMove 1s linear 7s forwards,pistonBeltMove 1s linear 8s forwards reverse}@keyframes noteMoveOut{0%{transform:translateX(0)}100%{transform:translateX(-165%)}}@keyframes pixelNoteMoveOut{0%{transform:translate(194.31153px,39.718423px)}100%{transform:translate(-154.31153px,39.718423px)}}@keyframes noteFade{0%{visibility:hidden}20%{visibility:visible}}@keyframes noteFadeOut{0%{opacity:1}20%{opacity:0}}#pixelnote{fill:#bdbdbd;stroke:#bdbdbd;opacity:1;animation:pixelNoteMoveOut 9.075s linear 0s forwards,noteFade 9.075s steps(1,end) forwards}#note{animation:noteMoveOut 9.075s linear 0s forwards,noteFadeOut 9.075s steps(1,end) forwards}#redSlider,#blueSlider,#greenSlider{transition:cy .7s ease-in-out}#sprayColourIndicator{transition:fill 1s ease-in-out}@keyframes lightFlash{0%{fill:#e57373}100%{fill:#b71c1c}}.lightanim{animation:lightFlash 0s linear 9s forwards}</style><path id="note" d="m141.53 185.01v13.915a3.4034 3.4034.0 0 0-1.9901-.64647 3.4034 3.4034.0 0 0-3.4034 3.4034 3.4034 3.4034.0 0 0 3.4034 3.4034 3.4034 3.4034.0 0 0 3.4024-3.3951h.002v-12.511h11.311v9.7457a3.4034 3.4034.0 0 0-1.9906-.64647 3.4034 3.4034.0 0 0-3.4034 3.4034 3.4034 3.4034.0 0 0 3.4034 3.4034 3.4034 3.4034.0 0 0 3.4024-3.3879h.002v-16.687h-1.4139v.014h-11.311v-.014z" style="fill-opacity:.99792;fill:#bdbdbd;paint-order:normal"/><path id="path1074" d="m84.748 163.22-13.04-7.7584v-179.44l-8.3015-.65812 1e-6 187.85" style="fill:url(#radialGradient1086);opacity:.098;paint-order:normal"/><rect id="rect1491" y="21.05" width="210" height="4.3501" style="fill-opacity:.9875;fill:#e0e0e0;paint-order:normal"/><path id="path1495" d="m0 23.225h210" style="fill-opacity:.9875;fill:#616161;paint-order:normal;stroke:#9e9e9e"/><path id="pistonBelt" d="m0 23.225h210" style="fill-opacity:.9875;fill:#212121;paint-order:normal;stroke-dasharray:6.00000018,2.00000006000000008;stroke-dashoffset:20;stroke-width:2;stroke:#757575"/><g id="pistonParentGroup"><g id="pistonGroup" transform="translate(-46.182 30.692)"><rect id="piston" x="159.73" y="31.221" width="3.8624" height="38.373" style="fill-opacity:.98824;fill:#bdbdbd;paint-order:normal;stroke-width:.62836"/><rect id="pistonTip" x="156.03" y="68.01" width="11.269" height="1.5838" style="fill-opacity:.98824;fill:#757575;paint-order:normal;stroke-width:.21805"/></g><g id="g1520"><rect id="rect36921" x="111.88" y="25.4" width="7.2054" height="38.373" style="fill-opacity:.98824;fill:#757575;paint-order:normal;stroke-width:.85824"/><path id="path1493" d="m111.88 25.4 2.1167-4.3501h2.9721l2.1167 4.3501v.98551l-7.2054.07201z" style="fill-opacity:.99574;fill:#616161;paint-order:normal"/></g></g><rect id="rect36870" x="25.509" y="129.17" width="97.367" height="5.9868" style="fill-opacity:.9875;fill:#e0e0e0;paint-order:normal"/><rect id="cube" class="cube--anim" x="24.337" y="49.872" width="25.316" height="25.316" style="fill-opacity:.99792;fill:#bdbdbd;paint-order:normal"/><g id="g34134" transform="matrix(.49051 0 0 .49051 -15.12 -6.2801)"><path id="rect824" d="m80.686 179.07h51.123v22.54H80.686z" style="fill-opacity:.97917;fill:#212121;paint-order:normal"/><path id="rect33997" transform="scale(.26458)" d="m233.96 362.6v335.2h335.2v-335.2l-226.55 20.99v49.076h156.49v195.07H304.03v-244.15z" style="fill-opacity:.97917;fill:#212121;paint-order:normal"/><path id="rect815" transform="scale(.26458)" d="m233.96 362.6v335.2h335.2v-335.2h-226.55v20.99h205.57v293.22h-293.22v-293.22h49.076v-20.99z" style="fill-opacity:.99792;fill:#121212;paint-order:normal"/><path id="rect826" d="m80.686 201.61h51.123l10.583 12.25H70.103z" style="fill-opacity:.97917;fill:#151515;paint-order:normal"/><rect id="rect829" x="80.686" y="193.12" width="51.123" height="8.4932" style="fill-opacity:.97917;fill:#f9a825;paint-order:normal"/><path id="path831" d="m106.25 194.47 3.4386 5.9559h-6.8772l1.7193-2.9779z" style="fill:none;paint-order:normal;stroke:#000"/><g id="g839" transform="translate(.051426 .44166)"><path id="path833" d="m106.2 196.54v1.7757" style="fill:none;paint-order:normal;stroke-width:.5;stroke:#000"/><path id="path835" d="m106.2 198.6v.49084" style="fill:none;paint-order:normal;stroke-width:.5;stroke:#000"/></g><path id="path34015" transform="scale(.26458)" d="m283.04 48.391v335.2h20.988v-335.2zm59.57.0v335.2h20.988v-335.2z" style="fill-opacity:.99792;fill:#121212;paint-order:normal"/><path id="heater1" class="heater" d="m67.456 108.41v63.743h12.985V108.41z" style="fill-opacity:.99792;fill:#616161;paint-order:normal"/><path id="heater2" class="heater" d="m132.05 108.41v63.743h12.985V108.41z" style="fill-opacity:.99792;fill:#616161;paint-order:normal"/></g><path id="circle36858" d="m128.81 132.16c0 3.0124-2.442 5.4544-5.4544 5.4544h-98.557c-3.0124.0-5.4544-2.442-5.4544-5.4544 2e-6-3.0124 2.442-5.4544 5.4544-5.4544l98.557 1e-5c3.0124.0 5.4544 2.442 5.4544 5.4544z" style="fill:none;paint-order:normal;stroke:#000"/><path id="conveyorBelt" d="m128.81 132.16c0 3.0124-2.442 5.4544-5.4544 5.4544h-98.557c-3.0124.0-5.4544-2.442-5.4544-5.4544 2e-6-3.0124 2.442-5.4544 5.4544-5.4544l98.557 1e-5c3.0124.0 5.4544 2.442 5.4544 5.4544z" style="fill:none;paint-order:normal;stroke-dasharray:6.00000018,2.00000006;stroke-dashoffset:20;stroke-width:2;stroke:#000"/><circle id="path36866" cx="25.509" cy="132.16" r="2.9934" style="fill-opacity:.9875;fill:#757575;paint-order:normal;stroke-dashoffset:75.591;stroke-width:2;stroke:#616161"/><circle id="circle36868" cx="122.88" cy="132.16" r="2.9934" style="fill-opacity:.9875;fill:#757575;paint-order:normal;stroke-dashoffset:75.591;stroke-width:2;stroke:#616161"/><rect id="rect36874" x="68.358" y="-727e-17" width="5.2762" height="31.151" style="fill-opacity:.9875;fill:#b71c1c;paint-order:normal"/><rect id="rect36876" x="75.221" y="-10058e-18" width="5.2762" height="31.151" style="fill-opacity:.9875;fill:#2e7d32;paint-order:normal"/><rect id="rect36878" x="82.085" y="-5843e-18" width="5.2762" height="31.151" style="fill-opacity:.9875;fill:#303f9f;paint-order:normal"/><g id="g36950" transform="translate(-4.7625 -9.5415)"><g id="sprayToolGroup"><rect id="sprayToolAttachment" x="86.462" y="64.068" width="5.332" height="20.664" style="fill-opacity:.98824;fill:#757575;paint-order:normal;str oke-width:1.5;stroke-dashoffset:75.591;stroke:#939393"/><path id="spray" transform="rotate(-63.718 89.128 81.733)" d="m89.102 92.66 4.802 11.258H84.3z" style="fill-opacity:.98824;fill:#b71c1c;paint-order:normal"/><circle id="path36904" transform="rotate(-63.718 89.128 81.733)" cx="89.128" cy="81.733" r="4.6506" style="fill-opacity:.98824;fill:#757575;paint-order:normal;stroke-dashoffset:75.591;stroke-width:1.5624;stroke:#939393"/><path id="sprayToolHead" transform="rotate(-63.718 89.128 81.733)" d="m89.128 97.641-4.802-11.258h9.604z" style="fill-opacity:.98824;fill:#757575;paint-order:normal;stroke-dashoffset:75.591;stroke-width:1.2348;stroke:#939393"/><circle id="sprayColourIndicator" cx="89.128" cy="81.733" r="2.1539" style="fill-opacity:.98824;fill:#c62828;paint-order:normal"/></g><rect id="rect36872" x="74.62" y="42.192" width="29.015" height="27.876" style="fill-opacity:.9875;fill:#212121;paint-order:normal;stroke-dashoffset:75.591;stroke-width:3;stroke:#000"/><g id="g36900" transform="translate(.64843 .10057)"><path id="path36880" d="m80.542 47.237v17.586" style="fill-opacity:.9875;fill:#eee;paint-order:normal;stroke-dashoffset:75.591;stroke-width:2;stroke:#eee"/><path id="path36882" d="m88.479 47.237v17.586" style="fill-opacity:.9875;fill:#eee;paint-order:normal;stroke-dashoffset:75.591;stroke-width:2;stroke:#eee"/><path id="path36884" d="m96.417 47.237v17.586" style="fill-opacity:.9875;fill:#eee;paint-order:normal;stroke-dashoffset:75.591;stroke-width:2;stroke:#eee"/><circle id="redSlider" cx="80.542" cy="63" r="1.9964" style="fill-opacity:.9875;fill:#b71c1c;paint-order:normal"/><circle id="greenSlider" cx="88.479" cy="63" r="1.9964" style="fill-opacity:.98824;fill:#2e7c32;paint-order:normal"/><circle id="blueSlider" cx="96.417" cy="63" r="1.9964" style="fill-opacity:.98824;fill:#303f9f;paint-order:normal"/></g></g><defs id="defs1465"><radialGradient id="radialGradient1086" cx="69.672" cy="79.966" r="10.671" gradientTransform="matrix(0 -8.0534 8.8021 0 -634.2 724.32)" gradientUnits="userSpaceOnUse"><stop id="stop1080" offset="0"/><stop id="stop1082" style="stop-color:#bdbdbd" offset="1"/></radialGradient></defs><rect id="rect1058" x="-14.959" y="208.55" width="137.84" height="5.9868" style="fill-opacity:.9875;fill:#e0e0e0;paint-order:normal"/><path id="path1060" d="m128.81 211.54c0 3.0124-2.442 5.4544-5.4544 5.4544h-140.89c-3.0124.0-5.4544-2.442-5.4544-5.4544 2e-6-3.0124 2.442-5.4544 5.4544-5.4544l140.89 1e-5c3.0124.0 5.4544 2.442 5.4544 5.4544z" style="fill:none;paint-order:normal;stroke:#000"/><path id="conveyor2Belt" d="m128.81 211.54c0 3.0124-2.442 5.4544-5.4544 5.4544h-140.89c-3.0124.0-5.4544-2.442-5.4544-5.4544 2e-6-3.0124 2.442-5.4544 5.4544-5.4544l140.89 1e-5c3.0124.0 5.4544 2.442 5.4544 5.4544z" style="fill:none;paint-order:normal;stroke-dasharray:6.00000001,2.00000001;stroke-dashoffset:20;stroke-width:2;stroke:#000"/><circle id="circle1066" cx="122.88" cy="211.54" r="2.9934" style="fill-opacity:.9875;fill:#757575;paint-order:normal;stroke-dashoffset:75.591;stroke-width:2;stroke:#616161"/><rect id="rect1068" x="63.406" y="170.55" width="21.342" height="34.531" style="fill-opacity:.94243;fill:#1565c0;opacity:.371;paint-order:normal"/><rect id="rect1070" x="63.406" y="163.22" width="21.342" height="7.328" style="fill-opacity:.99147;fill:#424242;paint-order:normal"/><path id="rect1090" transform="scale(.26458)" d="m508.71 559.87v56.152h230.4l-32.42-56.152h-197.98zm0 209.61v54.426h197.98 87.004V769.48h-284.99z" style="fill-opacity:.99147;fill:#616161;paint-order:normal"/><path id="path1094" d="m146.21 148.13v-16.104l-10.583-10.575h50.316l-10.583 10.575v16.104z" style="fill-opacity:.99147;fill:#616161;paint-order:normal"/><path id="machineWindow1" transform="scale(.26458)" d="m508.71 616.02v153.45H793.7v-58.912l-54.584-94.541h-230.4z" style="fill-opacity:1;fill:#eee;paint-order:normal"/><path id="machineWindow2" transform="scale(.26458)" d="m739.12 616.02v153.45h54.584v-58.912l-54.584-94.541z" style="fill-opacity:.99147;fill:#e0e0e0;paint-order:normal"/><rect id="rect1525" x="134.6" y="148.13" width="4.7461" height="69.858" style="fill-opacity:.99147;fill:#424242;paint-order:normal"/><path id="rect1122" transform="scale(.26458)" d="m508.71 580.07v15.746h218.74l-9.0918-15.746h-209.65z" style="fill-opacity:.97917;fill:#f9a825;paint-order:normal;stroke-width:2.8596"/><path id="path1152" d="m163.53 154.22 1.6867 2.9214h-3.3733l.84333-1.4607z" style="fill:none;paint-order:normal;stroke-width:.49051;stroke:#000"/><g id="g1176" transform="translate(.12707 .077888)"><circle id="path1170" cx="163.14" cy="156.01" r=".26942" style="fill-opacity:.99147;paint-order:normal"/><path id="path1172" d="m163.14 156.01h.90538" style="fill-opacity:.99147;paint-order:normal;stroke-width:.13229;stroke:#000"/></g><path id="path1178" d="m163.27 156.09.36325-.62916" style="fill-opacity:.99147;paint-order:normal;stroke-linejoin:round;stroke-width:.052917;stroke:#000"/><path id="path1444" d="m162.91 156.72.36325-.62916" style="fill-opacity:.99147;paint-order:normal;stroke-linejoin:round;stroke-width:.052917;stroke:#000"/><path id="path1446" d="m163.62 156.73-.36325-.62916" style="fill-opacity:.99147;paint-order:normal;stroke-linejoin:round;stroke-width:.052917;stroke:#000"/><path id="path1448" d="m163.26 156.1-.36325-.62916" style="fill-opacity:.99147;paint-order:normal;stroke-linejoin:round;stroke-width:.052917;stroke:#000"/><path id="path1450" d="m163.22 156.12.62917-.36324" style="fill-opacity:.99147;paint-order:normal;stroke-linejoin:round;stroke-width:.052917;stroke:#000"/><path id="path1452" d="m162.66 156.41.62917-.36324" style="fill-opacity:.99147;paint-order:normal;stroke-linejoin:round;stroke-width:.052917;stroke:#000"/><path id="path1454" d="m163.81 156.42-.62917-.36324" style="fill-opacity:.99147;paint-order:normal;stroke-linejoin:round;stroke-width:.052917;stroke:#000"/><path id="path1456" d="m163.26 156.1-.62917-.36324" style="fill-opacity:.99147;paint-order:normal;stroke-linejoin:round;stroke-width:.052917;stroke:#000"/><path id="path1458" d="m163.26 155.31v1.498" style="fill-opacity:.99147;paint-order:normal;stroke-linejoin:round;stroke-width:.052917;stroke:#000"/><path id="path1527" d="m146.21 148.13v-16.104l29.15-1e-5v16.104z" style="fill-opacity:.99147;fill:#424242;paint-order:normal"/><g id="beltholder"><path id="rect2403" d="m194.54 18.994h15.463V43.67L194.54 33.193z" style="fill-opacity:.99787;fill:#757575;paint-order:normal"/><path id="rect2406" transform="scale(.26458)" d="m735.26 71.787v53.664l19.555 13.25v-66.914z" style="fill-opacity:.99787;fill:#9e9e9e;paint-order:normal"/></g><g id="indicatorLightGroup"><rect id="rect1160" x="136.97" y="147.59" width="3.8764" height=".54135" style="fill-opacity:.9875;fill:#212121;paint-order:normal"/><path id="indicatorLight" class="lightanim" d="m138.91 145.01c-.72158 1e-5-1.3064.22396-1.3062.50013v2.0832h2.6126v-2.0832c27e-5-.27621-.58475-.50017-1.3064-.50013z" style="fill-opacity:.9875;fill:#c62828;paint-order:normal"/></g><g id="pixelFilterSign" transform="matrix(1.5836 0 0 1.5836 -43.235 -97.401)"><rect id="rect4705" x="74.077" y="165.27" width="1.6112" height="1.6112" style="fill-opacity:.9875;paint-order:normal"/><rect id="rect4713" x="75.688" y="166.89" width="1.6112" height="1.6112" style="fill-opacity:.9875;paint-order:normal"/><rect id="rect4715" x="74.077" y="166.89" width="1.6112" height="1.6112" style="fill-opacity:.9875;paint-order:normal"/><rect id="rect4717" x="75.688" y="165.27" width="1.6112" height="1.6112" style="fill-opacity:.9875;paint-order:normal"/><rect id="rect4719" x="70.855" y="166.89" width="1.6112" height="1.6112" style="fill-opacity:.9875;paint-order:normal"/><rect id="rect4721" x="72.466" y="165.27" width="1.6112" height="1.6112" style="fill-opacity:.9875;paint-order:normal"/><rect id="rect4723" x="74.077" y="165.27" width="1.6112" height="1.6112" style="fill-opacity:.9875;paint-order:normal"/><rect id="rect4725" x="75.688" y="166.89" width="1.6112" height="1.6112" style="fill-opacity:.9875;paint-order:normal"/><rect id="rect4727" x="74.077" y="166.89" width="1.6112" height="1.6112" style="fill-opacity:.9875;fill:#616161;paint-order:normal"/><rect id="rect4729" x="75.688" y="165.27" width="1.6112" height="1.6112" style="fill-opacity:.9875;fill:#616161;paint-order:normal"/><rect id="rect4731" x="70.855" y="166.89" width="1.6112" height="1.6112" style="fill-opacity:.9875;fill:#616161;paint-order:normal"/><rect id="rect4733" x="72.466" y="165.27" width="1.6112" height="1.6112" style="fill-opacity:.9875;fill:#616161;paint-order:normal"/></g><rect id="cubeCreatorTopCover" x="24.336" y="42364e-9" width="5.0071" height="49.871" style="fill-opacity:.9875;fill:#eee;paint-order:normal"/><g id="pixelnote"><path id="rect4832" transform="scale(.26458)" d="m-204.27 596.61v5.2363h5.2344V596.61h-5.2344zm41.885.0v5.2363h5.2344V596.61h-5.2344zm-57.592 5.2363v5.2344h5.2363v-5.2344h-5.2363z" style="fill-opacity:.9875;opacity:.341;paint-order:normal;stroke-width:2.6309"/><path id="rect4834" transform="scale(.26458)" d="m-219.98 607.08v5.2363 5.2363h5.2363v-5.2363-5.2363h-5.2363z" style="fill-opacity:.9875;opacity:.81569;paint-order:normal;stroke-width:2.6309"/><path id="rect4838" transform="scale(.26458)" d="m-219.98 617.55v5.2344h5.2363V617.55h-5.2363zm5.2363 5.2344v5.2363h5.2344v-5.2363h-5.2344zm15.705-5.2344v5.2344h5.2363V617.55h-5.2363zm0 5.2344h-5.2344v5.2363h5.2344v-5.2363zm26.178-5.2344v5.2344h5.2363V617.55h-5.2363zm5.2363 5.2344v5.2363h5.2363v-5.2363h-5.2363z" style="fill-opacity:.9875;opacity:.279;paint-order:normal;stroke-width:2.6309"/><path id="rect4842" transform="scale(.26458)" d="m-204.27 549.49v5.2344 5.2363 5.2363 5.2344 5.2363 5.2344 5.2363 5.2363 5.2344h5.2344v-5.2344-5.2363-5.2363-5.2344-5.2363-5.2344-5.2363-5.2363-5.2344h-5.2344zm57.59.0v5.2344 5.2363 5.2363 5.2344 5.2363 5.2344 5.2363 5.2363 5.2344 5.2363 5.2344 5.2363h5.2363v-5.2363-5.2344-5.2363-5.2344-5.2363-5.2363-5.2344-5.2363-5.2344-5.2363-5.2363-5.2344h-5.2363zm-47.119 15.707v5.2344 5.2363 5.2344 5.2363 5.2363 5.2344 5.2363 5.2344 5.2363h5.2363v-5.2363-5.2344-5.2363-5.2344-5.2363-5.2363-5.2344-5.2363-5.2344h-5.2363zm-20.941 31.412v5.2363h5.2344v-5.2363h-5.2344zm47.119.0v5.2363h5.2363v-5.2363h-5.2363zm0 5.2363h-5.2363v5.2344h5.2363v-5.2344z" style="fill-opacity:.9875;opacity:.059;paint-order:normal;stroke-width:2.6309"/><path id="rect4844" transform="scale(.26458)" d="m-199.04 549.49v5.2344 5.2363 5.2363 5.2344 5.2363 5.2344 5.2363 5.2363 5.2344 5.2363h-5.2344-5.2363-5.2344v5.2344 5.2363 5.2363 5.2344h5.2344 5.2363 5.2344v-5.2344h5.2363v-5.2363-5.2363-5.2344-5.2363-5.2344-5.2363-5.2363-5.2344-5.2363-5.2344h5.2363 5.2344 5.2363 5.2344 5.2363 5.2363 5.2344 5.2363v5.2344 5.2363 5.2344 5.2363 5.2363 5.2344 5.2363h-5.2363-5.2344-5.2363v5.2344 5.2363 5.2363 5.2344h5.2363 5.2344 5.2363v-5.2344h5.2344v-5.2363-5.2363-5.2344-5.2363-5.2344-5.2363-5.2363-5.2344-5.2363-5.2344-5.2363-5.2363-5.2344h-5.2344-5.2363-5.2344-5.2363-5.2363-5.2344-5.2363-5.2344-5.2363-5.2363z" style="fill-opacity:.9875;opacity:.97647;paint-order:normal;stroke-width:2.6309"/><path id="rect4854" d="m-55.433 157.85h1.3852v1.3852h-1.3852V157.85z" style="fill-opacity:.9875;opacity:.39216;paint-order:normal;stroke-width:.69608"/><path id="rect4864" d="m-55.433 164.78h1.3852v1.3852h-1.3852V164.78z" style="fill-opacity:.9875;opacity:.5098;paint-order:normal;stroke-width:.69608"/><path id="rect4950" d="m-51.277 162.01h1.3852v1.3852h-1.3852V162.01z" style="fill-opacity:.9875;opacity:.027451;paint-order:normal;stroke-width:.69608"/><path id="rect4958" transform="scale(.26458)" d="m-188.57 565.2v5.2344h5.2344 5.2363 5.2344 5.2363 5.2363 5.2344 5.2363V565.2h-5.2363-5.2344-5.2363-5.2363-5.2344-5.2363-5.2344z" style="fill-opacity:.9875;opacity:.011765;paint-order:normal;stroke-width:2.6309"/><path id="rect4986" transform="scale(.26458)" d="m-172.86 607.08v5.2363 5.2363h5.2363v-5.2363-5.2363h-5.2363zm10.473 15.707v5.2363h5.2344v-5.2363h-5.2344z" style="fill-opacity:.9875;opacity:.65882;paint-order:normal;stroke-width:2.6309"/><path id="rect5042" d="m-41.58 157.85h1.3852v1.3852H-41.58V157.85z" style="fill-opacity:.9875;opacity:.26667;paint-order:normal;stroke-width:.69608"/><path id="rect5052" d="m-41.58 164.78h1.3852v1.3852H-41.58V164.78z" style="fill-opacity:.9875;opacity:.38431;paint-order:normal;stroke-width:.69608"/><path id="rect5080" d="m-40.195 163.39h1.3852v1.3852h-1.3852V163.39z" style="fill-opacity:.9875;opacity:.54118;paint-order:normal;stroke-width:.69608"/><path id="rect5108" d="m-38.81 162.01h1.3852v1.3852H-38.81V162.01z" style="fill-opacity:.9875;opacity:.043137;paint-order:normal;stroke-width:.69608"/></g><script><![CDATA[function getEl(query,all=true){let el=null;if(all){el=document.querySelectorAll(query);}else{el=document.querySelector(query);}
if(!el){console.error(query+" can't be found - svg loading error");return null;}
return el;}
let colours=["#f44336","#E91E63","#9C27B0","#673AB7","#3F51B5","#2196F3","#03A9F4","#00BCD4","#009688","#4CAF50","#8BC34A","#CDDC39","#FFEB3B","#FFC107","#FF9800","#FF5722","#795548","#9E9E9E","#607D8B"];function randomint(min,max){min=Math.ceil(min);max=Math.floor(max);return Math.floor(Math.random()*(max-min+1))+min;}
function setColour(hex){let indicator=getEl("#sprayColourIndicator",false);indicator.style.fill=hex;let rgb=[parseInt(hex.substring(1,3),16),parseInt(hex.substring(3,5),16),parseInt(hex.substring(5,7),16)];let values=[rgb[0]*((50-63)/255)+63,rgb[1]*((50-63)/255)+63,rgb[2]*((50-63)/255)+63];let sliders=[getEl("#redSlider",false),getEl("#greenSlider",false),getEl("#blueSlider",false)];for(let i=0;i<sliders.length;i++){sliders[i].style.cy=values[i]+"px";}}
let currColour="";let animatedObjects=["#spray","#sprayToolHead","#sprayToolGroup","#note","#pixelnote"];let pistonObjects=["#piston","#pistonTip","#pistonParentGroup","#pistonBelt"];document.addEventListener("DOMContentLoaded",function(event){currColour=colours[randomint(0,18)];setColour(currColour);let cube=getEl("#cube",false);let svg=getEl("svg",false);let note=getEl("#note",false);let pixelnote=getEl("#pixelnote",false);let pistonParentGroup=getEl("#pistonParentGroup",false);let sprayToolHead=getEl("#sprayToolHead",false);sprayToolHead.addEventListener("animationend",function(){currColour=colours[randomint(0,18)];setColour(currColour);});let spray=getEl("#spray",false);spray.addEventListener("animationstart",function(){cube.style.fill=currColour;spray.style.fill=currColour;});let indicatorLight=getEl("#indicatorLight",false);function indicatorLightAnimStart(){let tmpcube=cube.cloneNode(true);tmpcube.style.fill="#bdbdbd";cube.outerHTML="";cube=tmpcube;svg.prepend(cube);}
function resetPistonObjects(){for(let elquery of pistonObjects){resetObjectAnimation(getEl(elquery,false));}
pistonParentGroup.removeEventListener("animationend",resetPistonObjects,false);}
function indicatorLightAnimEnd(){let tmpindicator=indicatorLight.cloneNode(true);tmpindicator.addEventListener("animationstart",indicatorLightAnimStart);tmpindicator.addEventListener("animationend",indicatorLightAnimEnd);indicatorLight.parentNode.replaceChild(tmpindicator,indicatorLight);indicatorLight=tmpindicator;note.style.fill=currColour;pixelnote.style.fill=currColour;pixelnote.style.stroke=currColour;for(let elquery of animatedObjects){resetObjectAnimation(getEl(elquery,false));}
resetPistonObjects();}
indicatorLight.addEventListener("animationstart",indicatorLightAnimStart);indicatorLight.addEventListener("animationend",indicatorLightAnimEnd);function resetObjectAnimation(el){el.style.animation="none";el.clientHeight;el.style.animation=null;}});]]></script></svg>